<svg width="45" height="45" viewBox="0 0 45 45" fill="none" xmlns="http://www.w3.org/2000/svg">
<path d="M43.3964 14.5299C43.1288 13.881 42.8269 13.2453 42.4908 12.6229C42.3009 12.2697 42.1002 11.9211 41.8885 11.5772C40.9751 10.0973 39.8617 8.69997 38.5484 7.38507C34.2458 3.08246 29.0515 0.931152 22.9656 0.931152C16.8813 0.931152 11.6878 3.08246 7.38519 7.38507C3.08258 11.6877 0.931278 16.8812 0.931278 22.9655C0.931278 29.0514 3.08258 34.2456 7.38519 38.5483C11.6878 42.8493 16.8813 44.9998 22.9656 44.9998C29.0515 44.9998 34.2458 42.8493 38.5484 38.5483C40.9183 36.1768 42.6355 33.5353 43.6998 30.6238C44.5666 28.2508 45 25.698 45 22.9655C45 20.8694 44.7448 18.8784 44.2344 16.9924C44.1768 16.7792 44.1161 16.5676 44.0523 16.3575C43.8609 15.7366 43.6423 15.1274 43.3964 14.5299Z" fill="black" fill-opacity="0.098039"/>
<path d="M43.4011 16.4324C43.3467 16.2192 43.2899 16.0076 43.2307 15.7975C43.1833 15.633 43.1335 15.4688 43.0813 15.305C43.0044 15.0577 42.9227 14.8118 42.8363 14.5674C42.5328 13.71 42.1726 12.8752 41.7555 12.0629C41.575 11.7096 41.3836 11.3611 41.1813 11.0172C40.2275 9.39883 39.0394 7.87774 37.6171 6.45391C34.2248 3.06162 30.2778 1.0068 25.776 0.289434C25.0135 0.168059 24.2347 0.0848072 23.4395 0.0396804C22.9758 0.0132268 22.5074 0 22.0343 0C21.5955 0 21.1614 0.0116707 20.7319 0.0350122C15.2062 0.321334 10.4469 2.46097 6.45391 6.45391C2.1513 10.7565 0 15.95 0 22.0343C0 28.1202 2.1513 33.3145 6.45391 37.6171C9.09275 40.2549 12.0664 42.0841 15.375 43.1047C17.0724 43.6279 18.858 43.9384 20.7319 44.036C20.7381 44.036 20.7443 44.036 20.7506 44.036C21.1287 44.0547 21.5099 44.0656 21.8943 44.0687C21.941 44.0687 21.9877 44.0687 22.0343 44.0687C22.509 44.0687 22.9773 44.0562 23.4395 44.0313C23.5484 44.0251 23.6566 44.0181 23.7639 44.0103C24.6992 43.9434 25.6126 43.8236 26.5042 43.6509C26.8715 43.5793 27.2356 43.4992 27.5966 43.4105C31.3499 42.4752 34.6901 40.5441 37.6171 37.6171C39.8859 35.3468 41.5564 32.829 42.6285 30.0638C43.4921 27.8355 43.9675 25.4469 44.0547 22.898C44.064 22.6117 44.0687 22.3238 44.0687 22.0343C44.0687 22.0032 44.0687 21.9721 44.0687 21.941C44.0687 21.9254 44.0687 21.9099 44.0687 21.8943C44.0578 19.9865 43.8353 18.1659 43.4011 16.4324Z" fill="#4771A6"/>
<path d="M44.0453 23.1476L28.8967 7.99902L16.9785 31.4082L6.29279 30.2714L12.2775 36.2562L9.51391 36.2819L16.6961 43.464C17.9927 43.7727 19.338 43.9633 20.7318 44.0359C20.738 44.0359 20.7443 44.0359 20.7505 44.0359C21.1286 44.0546 21.5099 44.0655 21.8942 44.0686C21.9409 44.0686 21.9876 44.0686 22.0343 44.0686C22.5089 44.0686 22.9773 44.0561 23.4394 44.0312C23.5484 44.025 23.6565 44.018 23.7639 44.0102C24.6991 43.9433 25.6125 43.8235 26.5042 43.6508C26.8714 43.5792 27.2355 43.499 27.5965 43.4104C31.3498 42.4751 34.69 40.544 37.617 37.617C39.8858 35.3466 41.5563 32.8289 42.6284 30.0637C43.4639 27.9082 43.9361 25.6028 44.0453 23.1476Z" fill="black" fill-opacity="0.2"/>
<path d="M13.8088 22.5401C13.6765 22.4825 13.5497 22.4226 13.4283 22.3604C13.5139 23.6161 13.1396 24.3203 12.3056 24.4728C12.3569 26.0896 13.2633 27.3741 15.0248 28.3265C16.9171 27.0831 17.8709 24.3911 17.8865 20.2503C16.0005 19.7866 14.6171 18.5456 13.7364 16.5273C13.7379 18.474 14.4296 20.192 15.8114 21.6811C14.9105 21.6422 14.0997 21.3318 13.3793 20.7498C13.3357 21.4392 13.4789 22.0359 13.8088 22.5401Z" fill="#FECCB4"/>
<path d="M8.79733 29.8626C8.19357 30.3232 7.35872 30.4594 6.29279 30.2711C8.59426 33.1063 11.4334 34.1076 14.8101 33.2751C13.7628 34.7721 11.9974 35.7742 9.51392 36.2815C13.9908 39.4093 18.2849 38.8607 22.3961 34.6359C23.8541 34.8631 24.8804 34.4002 25.4748 33.2471C24.9037 33.1569 24.307 33.023 23.6845 32.8456L25.0453 32.2738C24.0665 32.0357 23.5172 31.3681 23.3974 30.2711C26.9547 30.8811 27.9568 28.4473 26.4038 22.9699C27.2301 23.1753 27.8269 23.1512 28.1941 22.8975C26.6551 22.8882 25.5339 21.904 24.8306 19.9448C26.1206 27.1604 24.6649 30.7932 20.4634 30.843C22.1533 30.0571 22.8691 28.6971 22.6108 26.7629C19.1345 32.0863 15.6994 32.8737 12.3056 29.125C13.3621 29.0908 14.2686 28.8247 15.0248 28.3267C13.2633 27.3744 12.3569 26.0899 12.3056 24.4731C13.1396 24.3206 13.5139 23.6164 13.4283 22.3607C12.977 22.1288 12.5794 21.8549 12.2355 21.539C10.2422 25.0045 9.93095 28.3439 11.3019 31.5572C10.2359 31.081 9.4011 30.5162 8.79733 29.8626Z" fill="#5A8FD2"/>
<path d="M32.6991 13.8014C32.5512 13.389 32.4096 12.9603 32.2743 12.5153C31.7249 11.1553 30.8901 9.91506 29.7697 8.79467C27.5772 6.60213 24.9287 5.50586 21.8243 5.50586C18.7199 5.50586 16.0706 6.60213 13.8765 8.79467C12.5398 10.1298 11.6116 11.6353 11.0919 13.3112C10.8834 13.9695 10.7402 14.6542 10.6624 15.3653C10.6126 15.8134 10.5877 16.2725 10.5877 16.7424C10.5877 17.5345 10.6593 18.2978 10.8024 19.0322C11.053 20.0484 11.5307 20.884 12.2356 21.5391C12.5795 21.855 12.9771 22.1289 13.4284 22.3607C13.5497 22.423 13.6766 22.4829 13.8088 22.5405C13.4789 22.0363 13.3358 21.4395 13.3793 20.7502C14.0998 21.3321 14.9105 21.6426 15.8115 21.6815C14.4297 20.1923 13.738 18.4744 13.7365 16.5277C14.6172 18.546 16.0006 19.7869 17.8866 20.2507C17.871 24.3914 16.9171 27.0835 15.0249 28.3268C14.2686 28.8248 13.3622 29.0909 12.3056 29.1251C15.6995 32.8737 19.1346 32.0863 22.6109 26.7629C22.8692 28.6972 22.1534 30.0572 20.4635 30.843C24.6649 30.7932 26.1207 27.1605 24.8307 19.9449C25.534 21.904 26.6552 22.8882 28.1942 22.8976C27.8269 23.1512 27.2302 23.1753 26.4039 22.9699C27.9569 28.4474 26.9547 30.8811 23.3975 30.2712C23.5173 31.3682 24.0666 32.0358 25.0454 32.2738L23.6846 32.8457C24.307 33.0231 24.9038 33.1569 25.4749 33.2472C30.9695 34.1139 34.0949 30.9504 34.8511 23.7565C36.8647 24.3416 38.4629 23.4352 39.6455 21.0373C36.6344 20.7432 34.319 18.3312 32.6991 13.8014ZM16.1453 15.8228C18.2227 14.5561 19.0358 12.5581 18.5845 9.8287C19.5586 12.4196 21.2633 13.7423 23.6986 13.7967C21.6181 15.0634 20.8027 17.0614 21.2524 19.7908C20.2814 17.1999 18.579 15.8772 16.1453 15.8228Z" fill="white"/>
<path d="M23.6987 13.7974L19.9173 14.8104L21.2525 19.7915C20.8028 17.0621 21.6182 15.064 23.6987 13.7974Z" fill="#2C4C6B"/>
<path d="M18.5844 9.82959L19.9172 14.8107L23.6985 13.7976C21.2632 13.7432 19.5585 12.4205 18.5844 9.82959Z" fill="#3A658F"/>
<path d="M16.1452 15.8237L19.9172 14.8107L18.5844 9.82959C19.0357 12.559 18.2226 14.557 16.1452 15.8237Z" fill="#497FB3"/>
<path d="M19.9172 14.8101L16.1452 15.8231C18.579 15.8775 20.2813 17.2002 21.2523 19.7911L19.9172 14.8101Z" fill="#3A658E"/>
<path d="M10.8023 19.0332C10.6592 18.2987 10.5876 17.5354 10.5876 16.7434C10.5876 16.2734 10.6125 15.8144 10.6623 15.3662C9.74109 18.7274 7.92668 20.7371 5.21907 21.3953C6.35657 22.62 7.6209 23.002 9.01205 22.5414C7.22721 25.6427 7.15563 28.0834 8.79731 29.8636C9.40108 30.5172 10.2359 31.082 11.3019 31.5582C9.93093 28.3448 10.2421 25.0055 12.2355 21.54C11.5306 20.8849 11.0529 20.0493 10.8023 19.0332Z" fill="#6DADFF"/>
<path d="M14.3084 23.2553C15.155 23.3689 15.8708 23.1308 16.4559 22.541" stroke="#333333" stroke-width="0.519174" stroke-linecap="round" stroke-linejoin="round"/>
</svg>
