<svg width="46" height="45" viewBox="0 0 46 45" fill="none" xmlns="http://www.w3.org/2000/svg">
<path fill-rule="evenodd" clip-rule="evenodd" d="M0.687927 22.5C0.687927 10.0736 10.7615 0 23.1879 0C35.6143 0 45.6879 10.0736 45.6879 22.5H0.687927Z" fill="#E43535"/>
<path fill-rule="evenodd" clip-rule="evenodd" d="M0.687927 22.5C0.687927 34.9264 10.7615 45 23.1879 45C35.6143 45 45.6879 34.9264 45.6879 22.5H0.687927Z" fill="#ECECEC"/>
<path d="M1.49165 22.5H44.8845" stroke="#595959" stroke-width="2" stroke-linecap="square"/>
<path d="M23.1878 28.9284C26.7383 28.9284 29.6164 26.0503 29.6164 22.4999C29.6164 18.9495 26.7383 16.0713 23.1878 16.0713C19.6374 16.0713 16.7593 18.9495 16.7593 22.4999C16.7593 26.0503 19.6374 28.9284 23.1878 28.9284Z" fill="white" stroke="#595959" stroke-width="2" stroke-linecap="round"/>
</svg>
