<svg width="43" height="45" viewBox="0 0 43 45" fill="none" xmlns="http://www.w3.org/2000/svg">
<path d="M26.305 28.2992C26.1976 28.3316 26.0931 28.3682 25.9916 28.4101C25.937 28.4322 25.8785 28.4426 25.8197 28.4407C25.7609 28.4387 25.7031 28.4245 25.6502 28.3988C25.5972 28.3732 25.5502 28.3367 25.5122 28.2918C25.4742 28.2469 25.4461 28.1945 25.4296 28.138L23.7519 22.501L4.64368 28.1876L9.19921 43.4959C9.35868 44.031 9.72413 44.4808 10.2152 44.7465C10.7063 45.0122 11.2828 45.0719 11.8179 44.9127L26.8912 40.4262C27.4263 40.2667 27.8761 39.9013 28.1418 39.4102C28.4075 38.9191 28.4673 38.3427 28.308 37.8075L27.2313 34.1882C27.2142 34.1319 27.2092 34.0726 27.2165 34.0143C27.2237 33.9559 27.2431 33.8996 27.2734 33.8492C27.3037 33.7988 27.3443 33.7552 27.3924 33.7214C27.4406 33.6876 27.4953 33.6642 27.553 33.6528C27.6619 33.6325 27.7697 33.6065 27.8759 33.5749C29.458 33.1026 30.3883 31.5412 29.955 30.0837C29.5217 28.6262 27.8871 27.8287 26.305 28.2992Z" fill="#99ADF9"/>
<mask id="mask0_2550_977" style="mask-type:luminance" maskUnits="userSpaceOnUse" x="4" y="22" width="27" height="23">
<path d="M26.305 28.2992C26.1976 28.3316 26.0931 28.3682 25.9916 28.4101C25.937 28.4322 25.8785 28.4426 25.8197 28.4407C25.7609 28.4387 25.7031 28.4245 25.6502 28.3988C25.5972 28.3732 25.5502 28.3367 25.5122 28.2918C25.4742 28.2469 25.4461 28.1945 25.4296 28.138L23.7519 22.501L4.64368 28.1876L9.19921 43.4959C9.35868 44.031 9.72413 44.4808 10.2152 44.7465C10.7063 45.0122 11.2828 45.0719 11.8179 44.9127L26.8912 40.4262C27.4263 40.2667 27.8761 39.9013 28.1418 39.4102C28.4075 38.9191 28.4673 38.3427 28.308 37.8075L27.2313 34.1882C27.2142 34.1319 27.2092 34.0726 27.2165 34.0143C27.2237 33.9559 27.2431 33.8996 27.2734 33.8492C27.3037 33.7988 27.3443 33.7552 27.3924 33.7214C27.4406 33.6876 27.4953 33.6642 27.553 33.6528C27.6619 33.6325 27.7697 33.6065 27.8759 33.5749C29.458 33.1026 30.3883 31.5412 29.955 30.0837C29.5217 28.6262 27.8871 27.8287 26.305 28.2992Z" fill="white"/>
</mask>
<g mask="url(#mask0_2550_977)">
<path opacity="0.25" d="M21.1945 42.6768C21.1945 42.6768 12.8344 45.0234 10.9931 43.6609C9.44176 42.5157 9.37033 41.335 7.16842 36.6768C7.14363 40.691 9.33432 47.279 9.33432 47.279L21.1945 42.6768Z" fill="#99ADF9"/>
</g>
<path opacity="0.25" d="M11.7659 26.8257C11.7659 26.8257 12.5818 30.7313 15.5387 29.8517C18.4956 28.9722 17.0405 25.2549 17.0405 25.2549L11.7659 26.8257Z" fill="#99ADF9"/>
<path d="M18.5959 5.17627L1.50427 10.2613C0.969231 10.4207 0.519397 10.786 0.253705 11.277C-0.0119867 11.768 -0.0717762 12.3444 0.0874873 12.8794L4.64361 28.1877L11.2009 26.2397C11.2527 26.224 11.3072 26.2194 11.3609 26.2261C11.4145 26.2327 11.4662 26.2505 11.5126 26.2783C11.559 26.3061 11.5991 26.3433 11.6303 26.3874C11.6615 26.4316 11.6832 26.4818 11.6939 26.5348C11.7131 26.6332 11.7375 26.7316 11.7671 26.83C12.2393 28.4115 13.8007 29.3424 15.2576 28.9085C16.7146 28.4746 17.515 26.8424 17.044 25.2591C17.0144 25.1611 16.9814 25.0649 16.9436 24.9716C16.9239 24.9215 16.9148 24.8677 16.917 24.8139C16.9192 24.76 16.9326 24.7072 16.9563 24.6587C16.98 24.6103 17.0135 24.5674 17.0547 24.5326C17.0959 24.4979 17.1439 24.4721 17.1957 24.4569L23.753 22.5053L18.5959 5.17627Z" fill="#FEC272"/>
<mask id="mask1_2550_977" style="mask-type:luminance" maskUnits="userSpaceOnUse" x="0" y="5" width="24" height="25">
<path d="M18.5959 5.17627L1.50427 10.2613C0.969231 10.4207 0.519397 10.786 0.253705 11.277C-0.0119867 11.768 -0.0717762 12.3444 0.0874873 12.8794L4.64361 28.1877L11.2009 26.2397C11.2527 26.224 11.3072 26.2194 11.3609 26.2261C11.4145 26.2327 11.4662 26.2505 11.5126 26.2783C11.559 26.3061 11.5991 26.3433 11.6303 26.3874C11.6615 26.4316 11.6832 26.4818 11.6939 26.5348C11.7131 26.6332 11.7375 26.7316 11.7671 26.83C12.2393 28.4115 13.8007 29.3424 15.2576 28.9085C16.7146 28.4746 17.515 26.8424 17.044 25.2591C17.0144 25.1611 16.9814 25.0649 16.9436 24.9716C16.9239 24.9215 16.9148 24.8677 16.917 24.8139C16.9192 24.76 16.9326 24.7072 16.9563 24.6587C16.98 24.6103 17.0135 24.5674 17.0547 24.5326C17.0959 24.4979 17.1439 24.4721 17.1957 24.4569L23.753 22.5053L18.5959 5.17627Z" fill="white"/>
</mask>
<g mask="url(#mask1_2550_977)">
<path opacity="0.52" d="M2.46537 21.9849C2.46537 21.9849 0.121191 13.6248 1.48071 11.7835C2.62653 10.2322 4.65429 9.32425 7.04924 8.61114C3.03503 8.58634 -2.13739 10.1247 -2.13739 10.1247L2.46537 21.9849Z" fill="#FEC272"/>
</g>
<path d="M18.5958 5.17609L20.064 10.1088C20.0877 10.1874 20.0944 10.2702 20.0836 10.3515C20.0727 10.4329 20.0445 10.511 20.001 10.5806C19.9574 10.6501 19.8994 10.7096 19.831 10.7549C19.7625 10.8002 19.6852 10.8303 19.6041 10.8432C19.451 10.866 19.2997 10.8995 19.1513 10.9436C17.5698 11.4158 16.6389 12.9772 17.0728 14.4347C17.5067 15.8923 19.1389 16.6916 20.7216 16.2211C20.8701 16.1771 21.0151 16.1223 21.1555 16.057C21.2303 16.024 21.3114 16.0074 21.3932 16.0082C21.475 16.0089 21.5557 16.0272 21.6299 16.0616C21.7041 16.096 21.7702 16.1458 21.8236 16.2077C21.8771 16.2696 21.9168 16.3422 21.94 16.4206L23.7494 22.5009L29.9909 20.6426C30.1697 20.588 30.3198 20.4649 30.4083 20.3001C30.4967 20.1354 30.5165 19.9423 30.4631 19.763L30.4578 19.7453C29.9855 18.1632 30.7872 16.5292 32.2441 16.0959C33.701 15.6626 35.2642 16.593 35.7347 18.175L35.74 18.1922C35.7936 18.3719 35.9163 18.5231 36.0812 18.6125C36.2461 18.7019 36.4397 18.7223 36.6196 18.6691L40.8404 17.4129C41.3755 17.2536 41.8253 16.8883 42.091 16.3973C42.3567 15.9063 42.4165 15.3299 42.2572 14.7948L38.302 1.50427C38.1427 0.969232 37.7774 0.519398 37.2864 0.253706C36.7954 -0.0119867 36.219 -0.0717763 35.6839 0.0874875L18.5958 5.17609Z" fill="#FF97C9"/>
<mask id="mask2_2550_977" style="mask-type:luminance" maskUnits="userSpaceOnUse" x="16" y="0" width="27" height="23">
<path d="M18.5958 5.17609L20.064 10.1088C20.0877 10.1874 20.0944 10.2702 20.0836 10.3515C20.0727 10.4329 20.0445 10.511 20.001 10.5806C19.9574 10.6501 19.8994 10.7096 19.831 10.7549C19.7625 10.8002 19.6852 10.8303 19.6041 10.8432C19.451 10.866 19.2997 10.8995 19.1513 10.9436C17.5698 11.4158 16.6389 12.9772 17.0728 14.4347C17.5067 15.8923 19.1389 16.6916 20.7216 16.2211C20.8701 16.1771 21.0151 16.1223 21.1555 16.057C21.2303 16.024 21.3114 16.0074 21.3932 16.0082C21.475 16.0089 21.5557 16.0272 21.6299 16.0616C21.7041 16.096 21.7702 16.1458 21.8236 16.2077C21.8771 16.2696 21.9168 16.3422 21.94 16.4206L23.7494 22.5009L29.9909 20.6426C30.1697 20.588 30.3198 20.4649 30.4083 20.3001C30.4967 20.1354 30.5165 19.9423 30.4631 19.763L30.4578 19.7453C29.9855 18.1632 30.7872 16.5292 32.2441 16.0959C33.701 15.6626 35.2642 16.593 35.7347 18.175L35.74 18.1922C35.7936 18.3719 35.9163 18.5231 36.0812 18.6125C36.2461 18.7019 36.4397 18.7223 36.6196 18.6691L40.8404 17.4129C41.3755 17.2536 41.8253 16.8883 42.091 16.3973C42.3567 15.9063 42.4165 15.3299 42.2572 14.7948L38.302 1.50427C38.1427 0.969232 37.7774 0.519398 37.2864 0.253706C36.7954 -0.0119867 36.219 -0.0717763 35.6839 0.0874875L18.5958 5.17609Z" fill="white"/>
</mask>
<g mask="url(#mask2_2550_977)">
<path opacity="0.19" d="M19.1515 10.9434C19.1515 10.9434 17.5128 11.81 18.1102 13.8207C18.7076 15.8313 20.1049 16.0928 21.024 16.2569C19.3711 17.6962 14.4868 15.715 14.4868 15.715L16.3321 10.751L19.1515 10.9434Z" fill="#FF97C9"/>
<path opacity="0.19" d="M41.0507 10.7248C41.0507 10.7248 38.442 2.44316 36.2974 1.64446C34.4898 0.972075 31.9024 0.724729 29.5087 1.43725C32.8576 -0.779419 38.4226 -1.72217 38.4226 -1.72217L41.0507 10.7248Z" fill="#FF97C9"/>
</g>
<path d="M6.91286 17.9246C7.47102 17.9246 7.92349 17.4721 7.92349 16.914C7.92349 16.3558 7.47102 15.9033 6.91286 15.9033C6.3547 15.9033 5.90222 16.3558 5.90222 16.914C5.90222 17.4721 6.3547 17.9246 6.91286 17.9246Z" fill="#1C3177"/>
<path d="M14.4093 15.6946C14.9674 15.6946 15.4199 15.2421 15.4199 14.684C15.4199 14.1258 14.9674 13.6733 14.4093 13.6733C13.8511 13.6733 13.3987 14.1258 13.3987 14.684C13.3987 15.2421 13.8511 15.6946 14.4093 15.6946Z" fill="#1C3177"/>
<path d="M10.1082 18.1628C10.1082 18.1628 10.1365 17.3759 11.0645 17.1002C11.9925 16.8245 12.4181 17.4763 12.4181 17.4763" stroke="#1C3177" stroke-width="4.14919" stroke-miterlimit="10" stroke-linecap="round"/>
<path d="M13.2004 35.5086C13.7586 35.5086 14.211 35.0561 14.211 34.4979C14.211 33.9398 13.7586 33.4873 13.2004 33.4873C12.6422 33.4873 12.1898 33.9398 12.1898 34.4979C12.1898 35.0561 12.6422 35.5086 13.2004 35.5086Z" fill="#1C3177"/>
<path d="M20.6971 33.2781C21.2552 33.2781 21.7077 32.8256 21.7077 32.2675C21.7077 31.7093 21.2552 31.2568 20.6971 31.2568C20.1389 31.2568 19.6864 31.7093 19.6864 32.2675C19.6864 32.8256 20.1389 33.2781 20.6971 33.2781Z" fill="#1C3177"/>
<path d="M27.2868 10.851C27.4456 11.3858 27.0507 11.6438 26.5152 11.8032C25.9798 11.9626 25.5082 11.9626 25.3488 11.4277C25.3078 11.2996 25.2928 11.1646 25.3046 11.0306C25.3165 10.8966 25.3549 10.7663 25.4178 10.6473C25.4806 10.5284 25.5665 10.4231 25.6705 10.3378C25.7746 10.2525 25.8945 10.1888 26.0235 10.1504C26.1524 10.112 26.2877 10.0998 26.4215 10.1143C26.5552 10.1289 26.6847 10.17 26.8023 10.2353C26.92 10.3005 27.0234 10.3886 27.1066 10.4943C27.1898 10.6 27.2511 10.7213 27.2868 10.851Z" fill="#1C3177"/>
<path d="M34.7826 8.62001C34.942 9.15544 34.5465 9.41282 34.0111 9.57221C33.4757 9.73159 33.004 9.73159 32.8446 9.19676C32.8036 9.06863 32.7886 8.93361 32.8005 8.7996C32.8123 8.6656 32.8508 8.5353 32.9136 8.41635C32.9765 8.2974 33.0624 8.19218 33.1664 8.10686C33.2704 8.02153 33.3904 7.95782 33.5193 7.91945C33.6483 7.88108 33.7836 7.86882 33.9173 7.88339C34.051 7.89796 34.1805 7.93907 34.2982 8.00432C34.4158 8.06956 34.5193 8.15762 34.6025 8.26334C34.6857 8.36906 34.7469 8.49032 34.7826 8.62001Z" fill="#1C3177"/>
<path d="M32.322 11.6599C32.2849 12.1693 31.6662 12.115 30.7695 12.3818C29.8728 12.6487 29.4442 13.0902 29.0747 12.6262C28.6024 12.0359 29.4129 11.1032 30.3096 10.8364C31.2063 10.5695 32.3769 10.909 32.322 11.6599Z" fill="#F774B9"/>
<path d="M19.1713 34.3265L15.5473 35.4048C15.2029 35.5073 15.0068 35.8695 15.1093 36.2139C15.2117 36.5582 15.5739 36.7543 15.9183 36.6519L19.5423 35.5736C19.8867 35.4711 20.0828 35.1089 19.9803 34.7645C19.8778 34.4201 19.5156 34.224 19.1713 34.3265Z" fill="white"/>
<path d="M35.4627 31.6675L36.4704 33.4916" stroke="#1C3177" stroke-width="5.53225" stroke-miterlimit="10" stroke-linecap="round"/>
<path d="M37.6037 25.4111L39.4922 24.5298" stroke="#1C3177" stroke-width="5.53225" stroke-miterlimit="10" stroke-linecap="round"/>
<path d="M37.4864 28.7856L39.9215 29.5861" stroke="#1C3177" stroke-width="5.53225" stroke-miterlimit="10" stroke-linecap="round"/>
</svg>
