<svg width="25" height="24" viewBox="0 0 25 24" fill="none" xmlns="http://www.w3.org/2000/svg">
<path d="M3.91 7.22998H21.09V19.64C21.09 20.3985 20.7887 21.126 20.2523 21.6623C19.716 22.1987 18.9885 22.5 18.23 22.5H6.77C6.01148 22.5 5.28403 22.1987 4.74768 21.6623C4.21132 21.126 3.91 20.3985 3.91 19.64V7.22998Z" stroke="white" stroke-width="2" stroke-miterlimit="10"/>
<path d="M7.73 10.09V6.27C7.73 5.00492 8.23255 3.79165 9.1271 2.8971C10.0216 2.00255 11.2349 1.5 12.5 1.5C13.7651 1.5 14.9783 2.00255 15.8729 2.8971C16.7674 3.79165 17.27 5.00492 17.27 6.27V10.09" stroke="white" stroke-width="2" stroke-miterlimit="10"/>
</svg>
