<svg width="50" height="45" viewBox="0 0 50 45" fill="none" xmlns="http://www.w3.org/2000/svg">
<path d="M37.1183 2.49854H6.84991C3.57972 2.49854 0.928711 5.14953 0.928711 8.41969V36.6199C0.928711 39.8901 3.57972 42.5411 6.84991 42.5411H37.1183C40.3885 42.5411 43.0395 39.8901 43.0395 36.6199V8.41969C43.0395 5.14953 40.3885 2.49854 37.1183 2.49854Z" fill="#68E1FD"/>
<path d="M37.1156 42.8108H6.8499C5.20737 42.8108 3.63212 42.1583 2.47067 40.9969C1.30923 39.8355 0.656738 38.2602 0.656738 36.6177V8.42017C0.656738 6.77765 1.30923 5.20241 2.47067 4.04097C3.63212 2.87954 5.20737 2.22705 6.8499 2.22705H37.1156C38.7581 2.22705 40.3334 2.87954 41.4948 4.04097C42.6563 5.20241 43.3088 6.77765 43.3088 8.42017V36.6204C43.3081 38.2624 42.6552 39.837 41.4939 40.9979C40.3325 42.1587 38.7577 42.8108 37.1156 42.8108ZM6.8499 2.76828C5.3502 2.76828 3.91192 3.36402 2.85148 4.42447C1.79103 5.48491 1.19527 6.92317 1.19527 8.42286V36.6204C1.19527 38.1201 1.79103 39.5584 2.85148 40.6188C3.91192 41.6792 5.3502 42.275 6.8499 42.275H37.1156C38.6153 42.275 40.0536 41.6792 41.114 40.6188C42.1745 39.5584 42.7702 38.1201 42.7702 36.6204V8.42017C42.7702 6.92048 42.1745 5.48221 41.114 4.42177C40.0536 3.36133 38.6153 2.76558 37.1156 2.76558L6.8499 2.76828Z" fill="#093F68"/>
<path d="M35.7773 2.49808H8.18811L9.83064 0.912102C10.2582 0.49861 10.8299 0.267797 11.4247 0.268557H32.5407C33.1355 0.267797 33.7072 0.49861 34.1348 0.912102L35.7773 2.49808Z" fill="#68E1FD"/>
<path d="M35.7775 2.76806H8.18832C8.13516 2.76779 8.08327 2.7518 8.03918 2.72209C7.9951 2.69238 7.9608 2.65029 7.9406 2.60111C7.92005 2.55122 7.91498 2.49631 7.92602 2.44349C7.93706 2.39068 7.96372 2.3424 8.00253 2.30492L9.64506 0.718945C10.1221 0.256614 10.7606 -0.00132827 11.4249 5.14411e-06H32.5409C33.2052 -0.00132827 33.8438 0.256614 34.3208 0.718945L35.9633 2.30492C36.0021 2.3424 36.0288 2.39068 36.0398 2.44349C36.0509 2.49631 36.0458 2.55122 36.0252 2.60111C36.005 2.65029 35.9707 2.69238 35.9266 2.72209C35.8826 2.7518 35.8307 2.76779 35.7775 2.76806ZM8.85072 2.22953H35.1043L33.9411 1.10669C33.5645 0.74147 33.0602 0.53763 32.5355 0.538537H11.4249C10.9003 0.53763 10.396 0.74147 10.0193 1.10669L8.85072 2.22953Z" fill="#093F68"/>
<path d="M37.4495 42.4019H6.51602C6.0223 42.4019 5.62206 42.8021 5.62206 43.2958V43.8397C5.62206 44.3335 6.0223 44.7337 6.51602 44.7337H37.4495C37.9432 44.7337 38.3435 44.3335 38.3435 43.8397V43.2958C38.3435 42.8021 37.9432 42.4019 37.4495 42.4019Z" fill="#68E1FD"/>
<path d="M37.4495 45.0002H6.51599C6.2077 44.9995 5.91223 44.8767 5.69424 44.6588C5.47624 44.4408 5.35346 44.1453 5.35275 43.837V43.2985C5.35346 42.9902 5.47624 42.6947 5.69424 42.4767C5.91223 42.2587 6.2077 42.136 6.51599 42.1353H37.4495C37.7578 42.136 38.0532 42.2587 38.2712 42.4767C38.4892 42.6947 38.612 42.9902 38.6127 43.2985V43.837C38.612 44.1453 38.4892 44.4408 38.2712 44.6588C38.0532 44.8767 37.7578 44.9995 37.4495 45.0002ZM6.51599 42.6711C6.35031 42.6711 6.19141 42.7369 6.07426 42.8541C5.9571 42.9712 5.89129 43.1301 5.89129 43.2958V43.8343C5.89129 44 5.9571 44.1589 6.07426 44.276C6.19141 44.3932 6.35031 44.459 6.51599 44.459H37.4495C37.6152 44.459 37.7741 44.3932 37.8912 44.276C38.0084 44.1589 38.0742 44 38.0742 43.8343V43.2958C38.0742 43.1301 38.0084 42.9712 37.8912 42.8541C37.7741 42.7369 37.6152 42.6711 37.4495 42.6711H6.51599Z" fill="#093F68"/>
<path d="M29.8399 34.4282H14.1255C13.4369 34.4282 12.8788 34.9864 12.8788 35.6749V36.7654C12.8788 37.454 13.4369 38.0122 14.1255 38.0122H29.8399C30.5285 38.0122 31.0866 37.454 31.0866 36.7654V35.6749C31.0866 34.9864 30.5285 34.4282 29.8399 34.4282Z" fill="#093F68"/>
<path d="M29.8399 38.2792H14.1254C13.7236 38.2785 13.3384 38.1185 13.0543 37.8344C12.7701 37.5502 12.6102 37.165 12.6095 36.7632V35.6861C12.6095 35.2838 12.7691 34.898 13.0533 34.6132C13.3375 34.3285 13.7231 34.1682 14.1254 34.1675H29.8399C30.2422 34.1682 30.6278 34.3285 30.912 34.6132C31.1963 34.898 31.3559 35.2838 31.3559 35.6861V36.7632C31.3552 37.165 31.1952 37.5502 30.9111 37.8344C30.6269 38.1185 30.2418 38.2785 29.8399 38.2792ZM14.1254 34.6952C13.866 34.696 13.6174 34.7995 13.4341 34.9833C13.2509 35.167 13.148 35.4159 13.148 35.6754V36.7524C13.148 37.0117 13.251 37.2603 13.4343 37.4436C13.6176 37.6269 13.8662 37.7299 14.1254 37.7299H29.8399C30.0992 37.7299 30.3478 37.6269 30.5311 37.4436C30.7144 37.2603 30.8174 37.0117 30.8174 36.7524V35.6754C30.8174 35.4159 30.7145 35.167 30.5312 34.9833C30.348 34.7995 30.0994 34.696 29.8399 34.6952H14.1254Z" fill="#093F68"/>
<path d="M37.9693 4.77686H5.99639C4.3546 4.77686 3.02367 6.10778 3.02367 7.74955V28.9704C3.02367 30.6122 4.3546 31.9431 5.99639 31.9431H37.9693C39.611 31.9431 40.942 30.6122 40.942 28.9704V7.74955C40.942 6.10778 39.611 4.77686 37.9693 4.77686Z" fill="white"/>
<path d="M37.9693 32.2121H5.9964C5.14052 32.2085 4.3207 31.867 3.7155 31.2618C3.11029 30.6566 2.76873 29.8368 2.76518 28.9809V7.74926C2.76873 6.89338 3.11029 6.07358 3.7155 5.46838C4.3207 4.86318 5.14052 4.52161 5.9964 4.51807H37.9693C38.8251 4.52161 39.645 4.86318 40.2502 5.46838C40.8554 6.07358 41.1969 6.89338 41.2005 7.74926V28.962C41.2019 29.8212 40.8625 30.6458 40.2568 31.2551C39.6511 31.8644 38.8284 32.2085 37.9693 32.2121ZM5.9964 5.04583C5.28225 5.04583 4.59736 5.32952 4.09238 5.83449C3.58741 6.33946 3.30372 7.02435 3.30372 7.73849V28.962C3.30726 29.6751 3.59209 30.3579 4.0963 30.8621C4.60051 31.3663 5.28335 31.6512 5.9964 31.6547H37.9693C38.6823 31.6512 39.3652 31.3663 39.8694 30.8621C40.3736 30.3579 40.6584 29.6751 40.6619 28.962V7.74926C40.6619 7.03512 40.3783 6.35023 39.8733 5.84526C39.3683 5.34029 38.6834 5.0566 37.9693 5.0566L5.9964 5.04583Z" fill="#093F68"/>
<path d="M37.3042 6.28711H6.6588C5.48695 6.28711 4.53697 7.23708 4.53697 8.40892V28.3104C4.53697 29.4822 5.48695 30.4322 6.6588 30.4322H37.3042C38.476 30.4322 39.426 29.4822 39.426 28.3104V8.40892C39.426 7.23708 38.476 6.28711 37.3042 6.28711Z" fill="white"/>
<path d="M37.3042 30.7017H6.66148C6.02729 30.701 5.41924 30.4489 4.97054 30.0007C4.52185 29.5525 4.26911 28.9448 4.26768 28.3106V8.40915C4.2684 7.77475 4.52091 7.16657 4.96976 6.71823C5.41861 6.2699 6.02707 6.01807 6.66148 6.01807H37.3042C37.9386 6.01807 38.547 6.2699 38.9959 6.71823C39.4447 7.16657 39.6972 7.77475 39.698 8.40915V28.3106C39.6965 28.9448 39.4438 29.5525 38.9951 30.0007C38.5464 30.4489 37.9383 30.701 37.3042 30.7017ZM6.66148 6.5566C6.1699 6.5566 5.69841 6.75169 5.35056 7.09903C5.00271 7.44638 4.80693 7.91757 4.80622 8.40915V28.3106C4.80693 28.8022 5.00271 29.2734 5.35056 29.6207C5.69841 29.9681 6.1699 30.1631 6.66148 30.1631H37.3042C37.7957 30.1631 38.2672 29.9681 38.6151 29.6207C38.9629 29.2734 39.1587 28.8022 39.1594 28.3106V8.40915C39.1587 7.91757 38.9629 7.44638 38.6151 7.09903C38.2672 6.75169 37.7957 6.5566 37.3042 6.5566H6.66148Z" fill="#093F68"/>
<path d="M16.2232 30.7017C16.1518 30.7017 16.0833 30.6733 16.0328 30.6228C15.9823 30.5723 15.9539 30.5038 15.9539 30.4324V6.28733C15.9539 6.21592 15.9823 6.14743 16.0328 6.09693C16.0833 6.04644 16.1518 6.01807 16.2232 6.01807C16.2946 6.01807 16.3631 6.04644 16.4136 6.09693C16.4641 6.14743 16.4925 6.21592 16.4925 6.28733V30.4324C16.4925 30.5038 16.4641 30.5723 16.4136 30.6228C16.3631 30.6733 16.2946 30.7017 16.2232 30.7017Z" fill="#093F68"/>
<path d="M27.7425 30.7017C27.6711 30.7017 27.6026 30.6733 27.5521 30.6228C27.5016 30.5723 27.4732 30.5038 27.4732 30.4324V6.28733C27.4732 6.21592 27.5016 6.14743 27.5521 6.09693C27.6026 6.04644 27.6711 6.01807 27.7425 6.01807C27.8139 6.01807 27.8824 6.04644 27.9329 6.09693C27.9834 6.14743 28.0118 6.21592 28.0118 6.28733V30.4324C28.0118 30.5038 27.9834 30.5723 27.9329 30.6228C27.8824 30.6733 27.8139 30.7017 27.7425 30.7017Z" fill="#093F68"/>
<path d="M11.7076 15.7465H7.30234V14.0098H13.8213V15.6684L10.2589 22.9171H8.05898L11.7076 15.7465Z" fill="#FFBC0E"/>
<path d="M13.8213 14.0097V15.6684L10.2589 22.917H8.059L11.7076 15.7465H7.30236V14.0097H13.8213ZM13.8213 13.4712H7.30236C7.15953 13.4712 7.02255 13.5279 6.92156 13.6289C6.82056 13.7299 6.76382 13.8669 6.76382 14.0097V15.7465C6.76382 15.8893 6.82056 16.0263 6.92156 16.1273C7.02255 16.2283 7.15953 16.285 7.30236 16.285H10.8298L7.57701 22.672C7.53298 22.7558 7.51179 22.8496 7.51557 22.9442C7.51935 23.0387 7.54797 23.1306 7.59856 23.2105C7.64532 23.2915 7.71236 23.359 7.7931 23.4062C7.87384 23.4534 7.96548 23.4788 8.059 23.4798H10.2589C10.3599 23.48 10.4588 23.4518 10.5445 23.3985C10.6302 23.3452 10.6992 23.2689 10.7436 23.1782L14.3033 15.9323C14.3404 15.8578 14.3598 15.7758 14.3599 15.6926V14.034C14.3599 13.8911 14.3031 13.7542 14.2021 13.6532C14.1011 13.5522 13.9642 13.4954 13.8213 13.4954V13.4712Z" fill="#093F68"/>
<path d="M22.7582 15.7465H18.353V14.0098H24.8719V15.6684L21.3095 22.9171H19.1069L22.7582 15.7465Z" fill="#FFBC0E"/>
<path d="M24.872 14.0097V15.6684L21.3096 22.917H19.107L22.7583 15.7465H18.353V14.0097H24.872ZM24.872 13.4712H18.353C18.2102 13.4712 18.0732 13.5279 17.9722 13.6289C17.8713 13.7299 17.8145 13.8669 17.8145 14.0097V15.7465C17.8145 15.8893 17.8713 16.0263 17.9722 16.1273C18.0732 16.2283 18.2102 16.285 18.353 16.285H21.8778L18.6277 22.672C18.5837 22.7558 18.5625 22.8496 18.5663 22.9442C18.57 23.0387 18.5987 23.1306 18.6492 23.2105C18.6958 23.2912 18.7624 23.3583 18.8426 23.4055C18.9228 23.4527 19.0139 23.4783 19.107 23.4798H21.3096C21.4105 23.48 21.5095 23.4518 21.5952 23.3985C21.6809 23.3452 21.7499 23.2689 21.7943 23.1782L25.354 15.9323C25.3911 15.8578 25.4105 15.7758 25.4106 15.6926V14.034C25.4106 13.8911 25.3538 13.7542 25.2528 13.6532C25.1518 13.5522 25.0149 13.4954 24.872 13.4954V13.4712Z" fill="#093F68"/>
<path d="M34.5494 13.1913H30.1442V11.46H36.6631V13.1213L33.1007 20.37H30.8981L34.5494 13.1913Z" fill="#FFBC0E"/>
<path d="M36.6632 11.4599V13.1213L33.1008 20.3699H30.8982L34.5495 13.1967H30.1442V11.4599H36.6632ZM36.6632 10.9214H30.1442C30.0014 10.9214 29.8644 10.9781 29.7634 11.0791C29.6625 11.1801 29.6057 11.3171 29.6057 11.4599V13.1967C29.6057 13.3395 29.6625 13.4765 29.7634 13.5775C29.8644 13.6785 30.0014 13.7352 30.1442 13.7352H33.669L30.4189 20.1249C30.3749 20.2086 30.3537 20.3025 30.3575 20.3971C30.3612 20.4916 30.3899 20.5835 30.4404 20.6634C30.487 20.744 30.5536 20.8112 30.6338 20.8584C30.714 20.9056 30.8051 20.9312 30.8982 20.9327H33.1008C33.2017 20.9329 33.3007 20.9047 33.3864 20.8514C33.4721 20.7981 33.5411 20.7218 33.5855 20.6311L37.1452 13.3448C37.1829 13.2715 37.2023 13.1902 37.2018 13.1078V11.4599C37.2018 11.3171 37.145 11.1801 37.044 11.0791C36.943 10.9781 36.8061 10.9214 36.6632 10.9214Z" fill="#093F68"/>
<path d="M44.8058 10.8975H43.7638C43.3622 10.8975 43.0367 11.223 43.0367 11.6245V27.697C43.0367 28.0985 43.3622 28.424 43.7638 28.424H44.8058C45.2074 28.424 45.5329 28.0985 45.5329 27.697V11.6245C45.5329 11.223 45.2074 10.8975 44.8058 10.8975Z" fill="#093F68"/>
<path d="M44.8058 28.6925H43.7664C43.5017 28.6918 43.248 28.5863 43.0608 28.3991C42.8736 28.2119 42.7682 27.9582 42.7675 27.6935V11.6264C42.7682 11.3617 42.8736 11.108 43.0608 10.9208C43.248 10.7336 43.5017 10.6282 43.7664 10.6274H44.8058C45.0703 10.6282 45.3237 10.7337 45.5105 10.921C45.6972 11.1083 45.8021 11.3619 45.8021 11.6264V27.6935C45.8021 27.958 45.6972 28.2117 45.5105 28.399C45.3237 28.5862 45.0703 28.6918 44.8058 28.6925ZM43.7664 11.166C43.6443 11.166 43.5272 11.2145 43.4409 11.3008C43.3545 11.3872 43.306 11.5043 43.306 11.6264V27.6935C43.3067 27.8154 43.3554 27.9321 43.4416 28.0183C43.5278 28.1045 43.6445 28.1533 43.7664 28.154H44.8058C44.9275 28.1533 45.0439 28.1044 45.1297 28.0182C45.2154 27.9319 45.2636 27.8152 45.2636 27.6935V11.6264C45.2639 11.5661 45.2523 11.5063 45.2295 11.4504C45.2067 11.3946 45.173 11.3438 45.1305 11.301C45.0879 11.2582 45.0373 11.2242 44.9816 11.2011C44.9259 11.1779 44.8662 11.166 44.8058 11.166H43.7664Z" fill="#093F68"/>
<path d="M47.5416 13.2695H46.3191C45.8849 13.2695 45.5329 13.6215 45.5329 14.0558V23.8032C45.5329 24.2375 45.8849 24.5895 46.3191 24.5895H47.5416C47.9759 24.5895 48.3279 24.2375 48.3279 23.8032V14.0558C48.3279 13.6215 47.9759 13.2695 47.5416 13.2695Z" fill="#68E1FD"/>
<path d="M47.5416 24.8585H46.3191C46.0394 24.8578 45.7713 24.7463 45.5735 24.5485C45.3757 24.3507 45.2643 24.0827 45.2636 23.8029V14.0555C45.2643 13.7758 45.3757 13.5077 45.5735 13.3099C45.7713 13.1121 46.0394 13.0007 46.3191 13H47.5416C47.8213 13.0007 48.0894 13.1121 48.2872 13.3099C48.485 13.5077 48.5964 13.7758 48.5971 14.0555V23.8029C48.5964 24.0827 48.485 24.3507 48.2872 24.5485C48.0894 24.7463 47.8213 24.8578 47.5416 24.8585ZM46.3191 13.5493C46.182 13.5493 46.0505 13.6038 45.9536 13.7007C45.8566 13.7977 45.8021 13.9292 45.8021 14.0663V23.8137C45.8021 23.9508 45.8566 24.0823 45.9536 24.1793C46.0505 24.2762 46.182 24.3307 46.3191 24.3307H47.5416C47.6787 24.3307 47.8102 24.2762 47.9072 24.1793C48.0041 24.0823 48.0586 23.9508 48.0586 23.8137V14.0663C48.0586 13.9292 48.0041 13.7977 47.9072 13.7007C47.8102 13.6038 47.6787 13.5493 47.5416 13.5493H46.3191Z" fill="#093F68"/>
<path d="M46.4269 7.58838H47.4313V16.5334H46.4269V7.58838Z" fill="white"/>
<path d="M47.4313 16.8019H46.4269C46.3555 16.8019 46.287 16.7735 46.2365 16.723C46.186 16.6725 46.1577 16.6041 46.1577 16.5326V7.58763C46.1577 7.51621 46.186 7.44772 46.2365 7.39723C46.287 7.34673 46.3555 7.31836 46.4269 7.31836H47.4313C47.5027 7.31836 47.5712 7.34673 47.6217 7.39723C47.6722 7.44772 47.7006 7.51621 47.7006 7.58763V16.5326C47.7006 16.6041 47.6722 16.6725 47.6217 16.723C47.5712 16.7735 47.5027 16.8019 47.4313 16.8019ZM46.6962 16.2634H47.162V7.85689H46.6962V16.2634Z" fill="#093F68"/>
<path d="M46.9304 8.37962C48.3833 8.37962 49.5611 7.20181 49.5611 5.74889C49.5611 4.29598 48.3833 3.11816 46.9304 3.11816C45.4774 3.11816 44.2996 4.29598 44.2996 5.74889C44.2996 7.20181 45.4774 8.37962 46.9304 8.37962Z" fill="#F56132"/>
<path d="M46.9303 8.64912C46.356 8.64966 45.7944 8.4798 45.3167 8.16106C44.8389 7.84231 44.4665 7.389 44.2464 6.85849C44.0264 6.32799 43.9687 5.74413 44.0806 5.18081C44.1925 4.6175 44.469 4.10004 44.8751 3.69393C45.2812 3.28782 45.7987 3.01131 46.362 2.89939C46.9253 2.78748 47.5092 2.84519 48.0397 3.06522C48.5702 3.28525 49.0235 3.65772 49.3423 4.13547C49.661 4.61323 49.8309 5.1748 49.8304 5.74913C49.8297 6.51804 49.5239 7.25525 48.9802 7.79895C48.4365 8.34265 47.6993 8.64841 46.9303 8.64912ZM46.9303 3.38498C46.4626 3.38444 46.0053 3.52264 45.6162 3.7821C45.227 4.04155 44.9236 4.41059 44.7442 4.84254C44.5649 5.27449 44.5177 5.74992 44.6086 6.2087C44.6995 6.66748 44.9245 7.08898 45.255 7.41989C45.5855 7.75079 46.0068 7.97622 46.4654 8.06766C46.9241 8.1591 47.3996 8.11244 47.8318 7.93358C48.2639 7.75472 48.6333 7.45171 48.8932 7.06286C49.1531 6.67402 49.2918 6.21683 49.2918 5.74913C49.2922 5.43867 49.2314 5.13117 49.1129 4.8442C48.9944 4.55723 48.8206 4.29641 48.6013 4.07663C48.382 3.85685 48.1216 3.68241 47.8349 3.56327C47.5482 3.44414 47.2408 3.38264 46.9303 3.38228V3.38498Z" fill="#093F68"/>
</svg>
