<svg width="46" height="45" viewBox="0 0 46 45" fill="none" xmlns="http://www.w3.org/2000/svg">
<path d="M15.596 33.3949L11.747 29.5459L4.98252 36.3104L8.83151 40.1594L15.596 33.3949Z" fill="#BD7575"/>
<path fill-rule="evenodd" clip-rule="evenodd" d="M32.741 4.50966L41.1966 3.94595L40.6329 12.4016L19.309 31.4707L13.6719 25.8336L32.741 4.50966Z" fill="#B4DFFB"/>
<path d="M16.4375 29.0102L38.7455 6.70215" stroke="#5EA7FF" stroke-width="2" stroke-linecap="round"/>
<path d="M3.52475 41.618C5.39271 43.4859 7.91651 43.9907 9.16182 42.7454C10.4071 41.5001 9.90237 38.9763 8.03441 37.1083C6.16644 35.2404 3.64264 34.7356 2.39733 35.9809C1.15202 37.2262 1.65678 39.75 3.52475 41.618Z" fill="#9C4D4D"/>
<path d="M22.127 34.2898L10.8529 23.0156L8.03434 25.8342L19.3085 37.1083L22.127 34.2898Z" fill="#9C4D4D"/>
<path d="M29.9223 33.3949L33.7713 29.5459L40.5358 36.3104L36.6868 40.1594L29.9223 33.3949Z" fill="#BD7575"/>
<path fill-rule="evenodd" clip-rule="evenodd" d="M12.7774 4.50966L4.32176 3.94595L4.88547 12.4016L26.2094 31.4707L31.8465 25.8336L12.7774 4.50966Z" fill="#B4DFFB"/>
<path d="M29.0809 29.0102L6.77283 6.70215" stroke="#5EA7FF" stroke-width="2" stroke-linecap="round"/>
<path d="M41.9936 41.618C40.1257 43.4859 37.6019 43.9907 36.3566 42.7454C35.1112 41.5001 35.616 38.9763 37.484 37.1083C39.3519 35.2404 41.8757 34.7356 43.121 35.9809C44.3663 37.2262 43.8616 39.75 41.9936 41.618Z" fill="#9C4D4D"/>
<path d="M23.3915 34.2898L34.6657 23.0156L37.4842 25.8342L26.2101 37.1083L23.3915 34.2898Z" fill="#9C4D4D"/>
</svg>
